<!-- enable-background="new 0 350 2383.9 3370.4"  -->
<!-- viewBox="0 400 2383.9 3370.4"  -->
<!-- viewBox="0 400 2400 3400"  -->
<!-- height="1300"  -->
<!-- viewBox="350 350 1700 2408"  -->

<svg xmlns="http://www.w3.org/2000/svg" x="0px" y="0px"
	viewBox="0 0 2102 2686" 
	id="background" 
	onclick="playAnimationSequence();">


	<g id="BACKGROUND" class="st2">
		<path class="st3" d="M1529.8,627c0.1-1.8-0.3-3.2-1.1-4.3C1529.3,624,1529.7,625.5,1529.8,627z"/>
		<polygon class="st3" points="929.6,1222.9 940.4,1225.6 936.3,1244.4 925.3,1235.1 927.8,1223.1 	"/>
		<polygon class="st3" points="924.1,1238.8 920.1,1235.4 924.1,1221.4 931,1223.3 	"/>
		<path class="st3" d="M1529.8,627c0.1-1.8-0.3-3.2-1.1-4.3C1529.3,624,1529.7,625.5,1529.8,627z"/>
		<path class="st4" d="M1616.4,824.9l96.5-95.1c0,0-42.7-57.4-52.7-57c-10,0.5-33.2-35.3-54.1-51.7c-20.9-16.4-44.5-4.3-44.5-4.3
			s-48.1-22.3-58-25.2c-9.9-2.9-95-69.2-106-86c-11-16.9-24.3-47.1-2.6-34c21.7,13.1,39.1-26.5,41.8-28.4s36.6-65.1,48.4-87.5
			s7.4-101-34.3-107.2c-41.8-6.2-23.5,10.8-63.1,27.3c-39.6,16.5-55-10.5-64.3-43.3s-35.8-38-51.7-43c-15.9-5-28.4-43.2-44-60.1
			c-15.6-17-29.6-14.6-29.6-14.6l-68.6,60.2l-0.5-0.3l-122.4,112l-569.8,621l-306.5,401l-3.9,21.1l44.9,59l196.4,165.4l73.2,61.6
			l114.2,97.2l118.2,100.3l3.5,1.4l80,38.9l124.2,104.7l-7.2,17l5,5.3l12.7-9.1l11.5,1.7l13.5,5.9l378,317.9l89.9,73.3l2.3-45.8
			l-4.4-109.9l-7.6-73.8l-3.3-30c-7.9-59.4-19-118.4-33.1-176.5l-4.8-19.4l-3.9-16.1c-93.7-391.8,17.4-791.7,285.5-1075L1616.4,824.9
			z"/>
	</g>

</svg>
