<!-- enable-background="new 0 350 2383.9 3370.4"  -->
<!-- viewBox="0 400 2383.9 3370.4"  -->
<!-- viewBox="0 400 2400 3400"  -->
<!-- height="1300"  -->
<!-- viewBox="350 350 1700 2408"  -->

			<svg xmlns="http://www.w3.org/2000/svg" x="0px" y="0px"
				viewBox="0 0 2102 2686" 
				id="lots" 
				onclick="playAnimationSequence();">


			<g id="BACK_OF_LOTS_NORTH_LEVEL_1_AND_2">
				<line class="st109" x1="1058.5" y1="342.8" x2="1027.3" y2="311.4"/>
				<line class="st109" x1="1061.2" y1="361.7" x2="1062.3" y2="320.9"/>
				<line class="st109" x1="1138.5" y1="349.2" x2="1098.3" y2="348.1"/>
				<polyline class="st109" points="1099.8,300.5 1163.6,302.3 1174.7,313.3 	"/>
				<path class="st109" d="M1351.9,639.1c-12.6-6.9-26-12.5-39.7-16.7"/>
				<line class="st109" x1="872" y1="678" x2="897.7" y2="652.4"/>
				<path class="st109" d="M894.5,674.8c25.2,25.4,59.1,40.2,94.8,41.4"/>
				<line class="st109" x1="894.5" y1="674.8" x2="884.8" y2="665.2"/>
				<line class="st109" x1="904.1" y1="646" x2="932.7" y2="617.6"/>
				<path class="st109" d="M918.4,631.8c9,10,19.7,18.3,31.8,24.3"/>
				<line class="st109" x1="1018" y1="646" x2="1016.5" y2="715.1"/>
				<line class="st109" x1="1034.7" y1="715.5" x2="998.4" y2="714.7"/>
				<line class="st109" x1="1044.1" y1="702.5" x2="1080.3" y2="701.3"/>
				<line class="st109" x1="1135.3" y1="696.2" x2="1173.4" y2="695"/>
				<line class="st109" x1="1089.5" y1="699.3" x2="1126.1" y2="698.2"/>
				<line class="st109" x1="1063.9" y1="619.6" x2="1062.2" y2="701.9"/>
				<line class="st109" x1="1109.3" y1="618.1" x2="1107.6" y2="698.8"/>
				<line class="st109" x1="1154.4" y1="695.5" x2="1163.5" y2="616.4"/>
				<line class="st109" x1="1243" y1="687.2" x2="1282.7" y2="695.7"/>
				<line class="st109" x1="1262.9" y1="691.5" x2="1281.1" y2="616"/>
				<line class="st109" x1="1233" y1="688.9" x2="1191.5" y2="679.9"/>
				<line class="st109" x1="1212.2" y1="683.9" x2="1227.4" y2="614.4"/>
				<line class="st109" x1="1393" y1="667" x2="1363.3" y2="645.2"/>
				<line class="st109" x1="1430" y1="694" x2="1400.6" y2="672.4"/>
				<line class="st109" x1="1291.6" y1="697.8" x2="1326.9" y2="710.6"/>
				<line class="st109" x1="1335.2" y1="714.4" x2="1364.7" y2="730.1"/>
				<line class="st109" x1="1332.3" y1="629.7" x2="1309.3" y2="704.2"/>
				<line class="st109" x1="1348.6" y1="721.5" x2="1378.1" y2="656"/>
				<line class="st109" x1="1398" y1="719.4" x2="1414.5" y2="682.6"/>
				<line class="st109" x1="1378.3" y1="760.5" x2="1393.3" y2="727.1"/>
				<line class="st109" x1="1439.8" y1="797.3" x2="1461.1" y2="754.1"/>
				<line class="st109" x1="1481.6" y1="802.9" x2="1451.2" y2="774.2"/>
				<line class="st109" x1="1578.4" y1="824.1" x2="1535.9" y2="784"/>
				<line class="st109" x1="1529.3" y1="777.7" x2="1475.9" y2="727.1"/>
				<line class="st109" x1="1466" y1="745.9" x2="1484.2" y2="711.6"/>
				<polyline class="st109" points="1495.4,895.4 1511.7,874.5 1528.4,853.8 1545.5,833.6 	"/>
				<line class="st109" x1="1126.3" y1="397.7" x2="1151" y2="424.3"/>
				<line class="st109" x1="1157.2" y1="431" x2="1180.1" y2="455.7"/>
				<line class="st109" x1="1219.3" y1="576.8" x2="1214.1" y2="542.8"/>
				<line class="st109" x1="1212" y1="534" x2="1202.2" y2="501.5"/>
				<line class="st109" x1="1198.6" y1="493.2" x2="1184.7" y2="463.5"/>
				<line class="st109" x1="1202.2" y1="326.2" x2="1229.6" y2="355.7"/>
				<line class="st109" x1="1235.6" y1="362.5" x2="1250.7" y2="380.6"/>
				<line class="st109" x1="1267.7" y1="419.9" x2="1284.8" y2="456.9"/>
				<line class="st109" x1="1284.4" y1="517.6" x2="1276.5" y2="476.1"/>
				<line class="st109" x1="1138.6" y1="411" x2="1183.1" y2="366.9"/>
				<line class="st109" x1="1216.6" y1="558.8" x2="1288" y2="552.8"/>
				<line class="st109" x1="1183.1" y1="366.9" x2="1215.6" y2="340.7"/>
				<line class="st109" x1="1250.5" y1="380.5" x2="1168.6" y2="443.3"/>
				<line class="st109" x1="1276.2" y1="438.4" x2="1191.7" y2="478.2"/>
				<line class="st109" x1="1280.5" y1="496.9" x2="1207.1" y2="517.8"/>
				<line class="st109" x1="1014.4" y1="324.2" x2="1040.2" y2="298.6"/>
				<line class="st109" x1="1061.7" y1="342.9" x2="1058.5" y2="342.8"/>
				<line class="st109" x1="1014.1" y1="362.5" x2="986.5" y2="334.8"/>
				<line class="st109" x1="999.9" y1="412.6" x2="954.4" y2="366.7"/>
				<polyline class="st109" points="1006.3,444.7 1060.3,391 1060.9,370.8 	"/>
				<line class="st109" x1="999.8" y1="451" x2="974" y2="476.7"/>
				<line class="st109" x1="986.9" y1="463.9" x2="922.1" y2="398.6"/>
				<line class="st109" x1="959.5" y1="500.6" x2="907.6" y2="448.4"/>
				<line class="st109" x1="922.2" y1="527.3" x2="875.4" y2="480.4"/>
				<line class="st109" x1="894.8" y1="461.1" x2="920.5" y2="435.6"/>
				<line class="st109" x1="862.5" y1="493.1" x2="888.3" y2="467.6"/>
				<line class="st109" x1="830.4" y1="525" x2="856.2" y2="499.5"/>
				<line class="st109" x1="903.3" y1="547" x2="877.6" y2="572.5"/>
				<line class="st109" x1="890.4" y1="559.8" x2="843.3" y2="512.2"/>
				<line class="st109" x1="803" y1="561.9" x2="828.7" y2="536.3"/>
				<line class="st109" x1="839" y1="572.4" x2="815.9" y2="549.1"/>
				<line class="st109" x1="871.1" y1="578.9" x2="809.5" y2="639.9"/>
				<line class="st109" x1="825.5" y1="649.6" x2="812.9" y2="636.8"/>
				<line class="st109" x1="809.5" y1="639.9" x2="796.9" y2="627.1"/>
				<line class="st109" x1="1250.7" y1="380.6" x2="1263.5" y2="399.8"/>
				<line class="st109" x1="789" y1="585.5" x2="771.4" y2="567.5"/>
				<line class="st109" x1="844.2" y1="1231.3" x2="843.4" y2="1232.1"/>
				<line class="st109" x1="844.2" y1="1231.3" x2="843.3" y2="1231.9"/>
				<line class="st109" x1="831.5" y1="1646.6" x2="830.8" y2="1645.9"/>
				<line class="st109" x1="831.5" y1="1646.6" x2="830.9" y2="1645.7"/>
				<line class="st109" x1="831.5" y1="1646.6" x2="830.5" y2="1646.1"/>
				<line class="st109" x1="644.7" y1="1144.2" x2="645.5" y2="1144.8"/>
				<line class="st109" x1="644.7" y1="1144.2" x2="645.3" y2="1145"/>
				<line class="st109" x1="644.7" y1="1144.2" x2="645.7" y2="1144.6"/>
				<line class="st109" x1="290" y1="1363.2" x2="313.4" y2="1335.4"/>
				<line class="st109" x1="320.9" y1="1330" x2="344.3" y2="1302.2"/>
				<line class="st109" x1="350.2" y1="1295.4" x2="373.5" y2="1267.6"/>
				<polyline class="st109" points="252,1403 264,1388.7 262.7,1387.6 268.5,1380.7 269.8,1381.8 281.5,1368 	"/>
				<line class="st109" x1="339.6" y1="1350.1" x2="383.7" y2="1387.3"/>
				<line class="st109" x1="367.3" y1="1317.2" x2="397.1" y2="1342.3"/>
				<polyline class="st109" points="380.4,1328.2 389.5,1317.3 387.3,1315.5 393.5,1308.2 	"/>
				<line class="st109" x1="659.9" y1="1099.5" x2="682.8" y2="1118.8"/>
				<line class="st109" x1="613.2" y1="1113.5" x2="640.9" y2="1136.9"/>
				<polyline class="st109" points="627.1,1125.2 604.2,1152.3 597.5,1174.5 	"/>
				<polyline class="st109" points="605.7,1076.8 600.5,1082.8 616.1,1095.9 	"/>
				<line class="st109" x1="586.9" y1="1130.6" x2="566" y2="1113.1"/>
				<polyline class="st109" points="571.3,1117.4 561.5,1129.1 548.8,1171.1 568.4,1176.9 	"/>
				<polyline class="st109" points="536.1,1213.4 590.3,1229.7 596.3,1210.2 	"/>
				<polyline class="st109" points="628.2,1237.6 646.9,1175.4 660.6,1159.4 644.9,1146.2 	"/>
				<polyline class="st109" points="453.4,1085.3 465.4,1071.2 495.7,1096.8 	"/>
				<line class="st109" x1="429.2" y1="1099.6" x2="458.3" y2="1128.8"/>
				<line class="st109" x1="414.1" y1="1122.9" x2="394.9" y2="1142.1"/>
				<line class="st109" x1="399.6" y1="1137.4" x2="433.3" y2="1171.1"/>
				<line class="st109" x1="641.3" y1="1034.5" x2="605.7" y2="1076.8"/>
				<polyline class="st109" points="669.2,1071.7 681.2,1057.5 717.7,1088.1 	"/>
				<line class="st109" x1="701.5" y1="1110.8" x2="678.1" y2="1138.5"/>
				<line class="st109" x1="689.8" y1="1124.7" x2="659.9" y2="1099.5"/>
				<line class="st109" x1="672.7" y1="1169.6" x2="652.7" y2="1152.8"/>
				<polyline class="st109" points="660.6,1159.4 646.9,1175.4 628.2,1237.6 	"/>
				<line class="st109" x1="564.8" y1="966.7" x2="605.8" y2="1001.3"/>
				<line class="st109" x1="544.4" y1="985" x2="515.7" y2="1013.4"/>
				<line class="st109" x1="529.8" y1="999.4" x2="575.2" y2="1037.7"/>
				<line class="st109" x1="509.2" y1="1019.9" x2="480.5" y2="1048.3"/>
				<line class="st109" x1="494.6" y1="1034.3" x2="543.4" y2="1075.5"/>
				<polyline class="st109" points="477.1,1057.3 465.4,1071.2 514,1112 	"/>
				<polyline class="st109" points="592.3,947 604,933.1 652.6,973.9 	"/>
				<line class="st109" x1="564.8" y1="966.7" x2="605.8" y2="1001.3"/>
				<line class="st109" x1="619.7" y1="984.8" x2="594.1" y2="1015.2"/>
				<polyline class="st109" points="666.5,1036.2 651,1023 640.9,1034.9 	"/>
				<line class="st109" x1="658.5" y1="1017.5" x2="652.6" y2="1024.5"/>
				<polyline class="st109" points="670.2,1045.9 682.3,1056.2 678.5,1060.6 	"/>
				<line class="st109" x1="665.7" y1="980.9" x2="768.7" y2="1067.8"/>
				<line class="st109" x1="818" y1="1270.6" x2="794.6" y2="1298.3"/>
				<line class="st109" x1="806.3" y1="1284.4" x2="770.1" y2="1254"/>
				<line class="st109" x1="781.8" y1="1240.1" x2="758.4" y2="1267.8"/>
				<line class="st109" x1="752.6" y1="1274.8" x2="729.3" y2="1302.5"/>
				<line class="st109" x1="740.9" y1="1288.7" x2="776" y2="1318.2"/>
				<line class="st109" x1="787.7" y1="1304.3" x2="764.3" y2="1332.1"/>
				<polyline class="st109" points="850.5,1160.4 862.9,1145.7 881.1,1161 868.6,1175.8 	"/>
				<line class="st109" x1="798.5" y1="1218.6" x2="810.2" y2="1204.7"/>
				<polyline class="st109" points="841.7,1231.1 830,1245.1 798.5,1218.6 786.9,1232.5 	"/>
				<line class="st109" x1="838.3" y1="1169.1" x2="814.9" y2="1196.9"/>
				<line class="st109" x1="872.1" y1="1197.6" x2="848.7" y2="1225.3"/>
				<line class="st109" x1="860.4" y1="1211.5" x2="826.6" y2="1182.9"/>
				<polyline class="st109" points="659.6,1220.1 706,1259.3 693.7,1273.7 	"/>
				<polyline class="st109" points="702,1280.7 685.2,1300.5 673.9,1291 	"/>
				<line class="st109" x1="646.5" y1="1286.6" x2="663.1" y2="1266.8"/>
				<line class="st109" x1="674.5" y1="1276.2" x2="649.1" y2="1255"/>
				<polyline class="st109" points="413.4,991.6 425.1,977.8 452,1000.4 	"/>
				<line class="st109" x1="382.3" y1="1024.8" x2="405.8" y2="997.1"/>
				<polyline class="st109" points="394,1011 418.3,1031.4 430,1017.6 	"/>
				<line class="st109" x1="415.7" y1="1029.2" x2="404" y2="1043.1"/>
				<line class="st109" x1="377.2" y1="1032.4" x2="355.6" y2="1057.8"/>
				<polyline class="st109" points="365.6,1046.2 389.7,1066.7 401.4,1052.8 	"/>
				<line class="st109" x1="387.6" y1="1064.9" x2="377.8" y2="1076.5"/>
				<polyline class="st109" points="351.8,1066.5 340.1,1080.4 357.9,1095.4 	"/>
				<line class="st109" x1="502.6" y1="886" x2="474.1" y2="919.8"/>
				<line class="st109" x1="488.3" y1="902.9" x2="495.3" y2="908.7"/>
				<line class="st109" x1="466.5" y1="925.2" x2="440.9" y2="955.6"/>
				<line class="st109" x1="453.7" y1="940.3" x2="481.4" y2="963.7"/>
				<line class="st109" x1="494.2" y1="948.6" x2="468.6" y2="978.9"/>
				<polyline class="st109" points="436.8,963.9 425.1,977.8 452,1000.4 	"/>
				<line class="st109" x1="559.4" y1="815.5" x2="580.8" y2="794.3"/>
				<line class="st109" x1="570.7" y1="804.3" x2="610.7" y2="844.5"/>
				<line class="st109" x1="620.7" y1="834.5" x2="599.4" y2="855.7"/>
				<line class="st109" x1="530.3" y1="844.8" x2="503.2" y2="871.6"/>
				<line class="st109" x1="517.4" y1="857.5" x2="566.8" y2="907.3"/>
				<line class="st109" x1="488.3" y1="902.9" x2="495.3" y2="908.7"/>
				<line class="st109" x1="575.9" y1="1473.8" x2="625.3" y2="1515.4"/>
				<line class="st109" x1="546.7" y1="1508.5" x2="586.1" y2="1541.7"/>
				<line class="st109" x1="597.8" y1="1527.8" x2="574.4" y2="1555.5"/>
				<line class="st109" x1="564.7" y1="1559.2" x2="539.8" y2="1588.6"/>
				<line class="st109" x1="552.3" y1="1573.9" x2="537.3" y2="1561.3"/>
				<line class="st109" x1="717.1" y1="1148.5" x2="684.5" y2="1187.3"/>
				<polyline class="st109" points="732.2,1161.4 740.8,1168.7 696.8,1221 	"/>
				<line class="st109" x1="659.6" y1="1220.1" x2="681.7" y2="1238.8"/>
				<line class="st109" x1="766.1" y1="1186.1" x2="733" y2="1225.5"/>
				<polyline class="st109" points="696.8,1221 740.9,1168.7 750.1,1176.4 	"/>
				<line class="st109" x1="681.7" y1="1238.8" x2="714.2" y2="1266.2"/>
				<line class="st109" x1="766.1" y1="1186.1" x2="733" y2="1225.5"/>
				<line class="st109" x1="717.1" y1="1148.5" x2="684.5" y2="1187.3"/>
				<line class="st109" x1="746.1" y1="1404.6" x2="773.9" y2="1428"/>
				<line class="st109" x1="780.9" y1="1433.9" x2="826.4" y2="1472.3"/>
				<line class="st109" x1="833.2" y1="1478.1" x2="888.3" y2="1524.5"/>
				<line class="st109" x1="899.4" y1="1533.9" x2="925.3" y2="1555.8"/>
				<line class="st109" x1="893.1" y1="1571.2" x2="866.7" y2="1602.4"/>
				<line class="st109" x1="861" y1="1609.3" x2="836.8" y2="1637.9"/>
				<polyline class="st109" points="830.9,1644.9 825.1,1651.9 807.5,1672.6 	"/>
				<line class="st109" x1="801.7" y1="1679.6" x2="778.4" y2="1707.3"/>
				<polyline class="st109" points="790.1,1693.4 818.6,1717.5 806.9,1731.4 	"/>
				<line class="st109" x1="773.4" y1="1715" x2="715.8" y2="1783.1"/>
				<line class="st109" x1="760.2" y1="1730.6" x2="775.8" y2="1743.7"/>
				<line class="st109" x1="783.5" y1="1748.7" x2="814.6" y2="1775"/>
				<line class="st109" x1="799.1" y1="1761.9" x2="769.9" y2="1796.5"/>
				<line class="st109" x1="754.2" y1="1783.4" x2="785.5" y2="1809.7"/>
				<polyline class="st109" points="821.6,1780.8 835.5,1792.5 792.1,1844 	"/>
				<line class="st109" x1="889.8" y1="1777.6" x2="952.3" y2="1830.2"/>
				<line class="st109" x1="878.1" y1="1791.5" x2="901.5" y2="1763.6"/>
				<line class="st109" x1="940.6" y1="1844" x2="964" y2="1816.3"/>
				<line class="st109" x1="894.6" y1="1863.1" x2="917.3" y2="1836.2"/>
				<line class="st109" x1="905.6" y1="1850.1" x2="924.7" y2="1866.3"/>
				<line class="st109" x1="936.4" y1="1852.4" x2="913.7" y2="1879.2"/>
				<line class="st109" x1="827.8" y1="1843.8" x2="855.5" y2="1867.2"/>
				<line class="st109" x1="841.6" y1="1855.5" x2="870.9" y2="1820.9"/>
				<line class="st109" x1="857" y1="1809.2" x2="884.7" y2="1832.5"/>
				<line class="st109" x1="828.5" y1="1786.7" x2="849.4" y2="1804.2"/>
				<line class="st109" x1="835.5" y1="1792.5" x2="794.6" y2="1841"/>
				<line class="st109" x1="985.9" y1="1883.8" x2="1008.4" y2="1902.7"/>
				<line class="st109" x1="999.2" y1="1895" x2="1014" y2="1872.3"/>
				<line class="st109" x1="1041.3" y1="1890.6" x2="1024.6" y2="1916.3"/>
				<line class="st109" x1="1015.4" y1="1908.5" x2="1036.9" y2="1926.6"/>
				<line class="st109" x1="1043.8" y1="1932.5" x2="1114.9" y2="1992.6"/>
				<line class="st109" x1="974.6" y1="1922.4" x2="1032.4" y2="1971.2"/>
				<line class="st109" x1="1097.4" y1="2005" x2="1062.8" y2="2046.1"/>
				<line class="st109" x1="1054.1" y1="2038.7" x2="1074.9" y2="2056.3"/>
				<line class="st109" x1="984" y1="1980.7" x2="1016.8" y2="2008.3"/>
				<line class="st109" x1="1023.3" y1="1982" x2="1042.8" y2="1959"/>
				<line class="st109" x1="1032.4" y1="1971.2" x2="1007.2" y2="1949.7"/>
				<line class="st109" x1="879.9" y1="1322.8" x2="858" y2="1348.9"/>
				<line class="st109" x1="854.6" y1="1357.8" x2="832.7" y2="1383.9"/>
				<line class="st109" x1="828.5" y1="1392.2" x2="819.4" y2="1403"/>
				<polyline class="st109" points="760,1416.3 792,1372.9 794.9,1365.2 846.8,1294.9 	"/>
				<line class="st109" x1="755.9" y1="1267.6" x2="756.5" y2="1266.9"/>
				<line class="st109" x1="755.9" y1="1267.6" x2="756.8" y2="1267.1"/>
				<line class="st109" x1="755.9" y1="1267.6" x2="756.4" y2="1266.7"/>
				<line class="st109" x1="569.6" y1="906.9" x2="568.9" y2="906.2"/>
				<line class="st109" x1="569.6" y1="906.9" x2="569.1" y2="906"/>
				<line class="st109" x1="569.6" y1="906.9" x2="568.8" y2="906.4"/>
				<polyline class="st109" points="717.8,969.5 705.6,959.3 714.3,950.9 724.7,941.7 736.7,932.5 749.1,924 761.2,916.7 769.6,912 
					778.3,907.9 792.2,902 805.5,897.2 816.8,893.7 829.5,890.6 845.7,887.5 	"/>
				<line class="st109" x1="697.5" y1="972.2" x2="707.3" y2="960.7"/>
				<line class="st109" x1="726.9" y1="973.2" x2="754.9" y2="996.7"/>
				<polyline class="st109" points="740.8,985 753.6,973.8 765.6,964.7 772.3,960.5 780,955.6 787,951.8 794.9,947.7 807,942.4 
					814.4,939.8 821.2,937.4 836.9,933.1 	"/>
				<line class="st109" x1="834.6" y1="915" x2="839.1" y2="951.2"/>
				<line class="st109" x1="908.4" y1="973.2" x2="943.6" y2="981"/>
				<polyline class="st109" points="867.7,1059.8 856.9,1072.9 822.5,1113.6 	"/>
				<polyline class="st109" points="887.1,1035.4 897.2,1021.7 905.8,1009.5 914.4,997.1 923.3,983.6 927.3,977.3 	"/>
				<polyline class="st109" points="867.7,1059.8 877.2,1048.1 887.1,1035.4 	"/>
				<polyline class="st109" points="889.2,956.8 885.7,962.3 877.4,974.8 869.4,986.4 862.4,996.1 853,1008.9 844.4,1020.1 
					834.4,1032.5 825.3,1043.4 789.5,1085.9 	"/>
				<line class="st109" x1="961.4" y1="986.2" x2="996.5" y2="994"/>
				<path class="st109" d="M976.5,996.3c1.2-2,2.5-4,3.7-6"/>
				<path class="st109" d="M956.9,1026.8c1.3-2,2.7-4,4-5.9"/>
				<path class="st109" d="M960.8,1020.9c1.3-2,2.6-3.9,3.9-5.9"/>
				<path class="st109" d="M964.7,1015c1.4-2.2,2.9-4.4,4.3-6.6"/>
				<path class="st109" d="M969,1008.4c1.3-2,2.6-4,3.8-6"/>
				<path class="st109" d="M972.8,1002.3c1.2-2,2.5-4,3.7-6"/>
				<path class="st109" d="M951.7,1034.3c1.7-2.5,3.4-5,5.1-7.5"/>
				<path class="st109" d="M946.6,1041.7c1.7-2.5,3.4-4.9,5.1-7.4"/>
				<path class="st109" d="M938.3,1053.3c1.4-1.9,2.8-3.8,4.1-5.7"/>
				<path class="st109" d="M942.5,1047.6c1.4-1.9,2.8-3.9,4.1-5.8"/>
				<path class="st109" d="M934.1,1059c1.4-1.9,2.8-3.8,4.2-5.7"/>
				<path class="st109" d="M925.1,1071c1.6-2.1,3.2-4.2,4.8-6.3"/>
				<path class="st109" d="M929.9,1064.7c1.4-1.9,2.9-3.8,4.3-5.7"/>
				<line class="st109" x1="932.3" y1="1087.6" x2="906.3" y2="1065.7"/>
				<path class="st109" d="M920.2,1077.3c1.6-2.1,3.3-4.2,4.9-6.3"/>
				<polyline class="st109" points="487.8,1475.9 496.5,1478.5 504.2,1480.8 511.7,1483 	"/>
				<polyline class="st109" points="444.4,1462.7 454.2,1465.7 461.8,1468 470.5,1470.6 479.1,1473.2 	"/>
				<polyline class="st109" points="461.8,1468 464.4,1459.3 466.7,1451.7 469.3,1443 471.6,1435.5 474.2,1426.8 476.5,1419.1 
					479.1,1410.4 	"/>
				<line class="st109" x1="542.2" y1="1448.2" x2="517.9" y2="1427.8"/>
				<line class="st109" x1="529" y1="1463.9" x2="555.4" y2="1432.7"/>
				<line class="st109" x1="504.7" y1="1443.4" x2="531.1" y2="1412.2"/>
				<line class="st109" x1="364.9" y1="1163.4" x2="384.2" y2="1182.9"/>
				<line class="st109" x1="376" y1="1257.7" x2="425.6" y2="1198.9"/>
				<line class="st109" x1="373.1" y1="1196" x2="395.9" y2="1169"/>
				<line class="st109" x1="397.3" y1="1263.9" x2="381.8" y2="1250.8"/>
				<line class="st109" x1="492.1" y1="1191.3" x2="508.9" y2="1135.3"/>
				<line class="st109" x1="451" y1="1202.1" x2="463" y2="1162.2"/>
				<line class="st109" x1="388.4" y1="1148.5" x2="414.1" y2="1122.9"/>
				<line class="st109" x1="399.6" y1="1137.4" x2="437.6" y2="1175.6"/>
				<line class="st109" x1="382.1" y1="1129.2" x2="394.9" y2="1142.1"/>
				<line class="st109" x1="488.9" y1="1138.9" x2="523.7" y2="1149.3"/>
				<line class="st109" x1="331.2" y1="1317.9" x2="290.8" y2="1283.8"/>
				<polyline class="st109" points="268.5,1297.6 256.8,1311.5 239.1,1296.5 	"/>
				<line class="st109" x1="227.4" y1="1310.4" x2="250.8" y2="1282.7"/>
				<line class="st109" x1="531.8" y1="1227.5" x2="542" y2="1193.9"/>
				<line class="st109" x1="642.1" y1="1320" x2="587.5" y2="1273.8"/>
				<polyline class="st109" points="511.2,1354 497.2,1342.3 514.9,1283.7 	"/>
				<polyline class="st109" points="611,1357 563.9,1317.4 535.8,1308.9 	"/>
				<line class="st109" x1="521.2" y1="1270.5" x2="531.4" y2="1236.9"/>
				<line class="st109" x1="587.5" y1="1273.8" x2="525.8" y2="1255.4"/>
				<line class="st109" x1="631.9" y1="1332.1" x2="654.5" y2="1305.2"/>
				<line class="st109" x1="548.3" y1="1392.7" x2="521.4" y2="1370"/>
				<line class="st109" x1="583" y1="1421.8" x2="555.2" y2="1398.5"/>
				<line class="st109" x1="559" y1="1423.9" x2="596.7" y2="1379.2"/>
				<line class="st109" x1="533.5" y1="1380.2" x2="560.2" y2="1348.5"/>
				<line class="st109" x1="600" y1="1370" x2="622.7" y2="1343.2"/>
				<line class="st109" x1="479.1" y1="1410.4" x2="481.4" y2="1402.9"/>
				<line class="st109" x1="481.6" y1="1402.3" x2="497.2" y2="1383.7"/>
				<line class="st109" x1="401.5" y1="1422.6" x2="423.1" y2="1350.7"/>
				<line class="st109" x1="384" y1="1417.4" x2="418.9" y2="1427.9"/>
				<line class="st109" x1="498.6" y1="1408.5" x2="485.5" y2="1397.6"/>
				<line class="st109" x1="511.7" y1="1483" x2="522.5" y2="1470.3"/>
				<polyline class="st109" points="414,1318.3 446.5,1328.1 457.4,1331.3 	"/>
				<line class="st109" x1="457.2" y1="1181.4" x2="437.6" y2="1175.6"/>
				<line class="st109" x1="247.8" y1="1355.1" x2="211.6" y2="1324.6"/>
				<line class="st109" x1="234" y1="1371.5" x2="197.8" y2="1341"/>
				<line class="st109" x1="215.7" y1="1356.3" x2="229.6" y2="1339.8"/>
				<line class="st109" x1="258.7" y1="1277.5" x2="308.9" y2="1227.4"/>
				<line class="st109" x1="361.9" y1="1281.4" x2="340.2" y2="1263.2"/>
				<line class="st109" x1="296.1" y1="1214.5" x2="321.7" y2="1240.3"/>
				<line class="st109" x1="452.3" y1="1148.6" x2="458.3" y2="1128.8"/>
				<line class="st109" x1="343.9" y1="1230.7" x2="367.3" y2="1202.9"/>
				<line class="st109" x1="323.8" y1="1212.6" x2="349.8" y2="1186.9"/>
				<polyline class="st109" points="357.1,1215.1 344.7,1204.6 338.2,1198.3 	"/>
				<line class="st109" x1="496.6" y1="1371.3" x2="525.8" y2="1336.6"/>
				<polyline class="st109" points="718.4,1384.2 719.9,1385.6 726.6,1377.8 	"/>
				<line class="st109" x1="737.8" y1="1400.6" x2="729.3" y2="1393.5"/>
				<polyline class="st109" points="718.4,1384.2 713,1379.7 706.1,1373.9 	"/>
				<polyline class="st109" points="729.3,1393.5 723.8,1388.9 719.9,1385.6 	"/>
				<line class="st109" x1="744.1" y1="1356.9" x2="750" y2="1350"/>
				<polyline class="st109" points="726.6,1377.8 732.4,1370.8 738.3,1363.9 744.1,1356.9 	"/>
				<polyline class="st109" points="750.8,1350.7 746.2,1346.9 741.6,1343.1 736.1,1338.3 	"/>
				<polyline class="st109" points="765.4,1363.1 759.9,1358.3 755.3,1354.5 750.8,1350.7 	"/>
				<line class="st109" x1="718.4" y1="1317.1" x2="724.2" y2="1310.2"/>
				<polyline class="st109" points="690.4,1350.3 695,1344.9 699.5,1339.4 704.1,1334 709.3,1328 713.8,1322.6 	"/>
				<polyline class="st109" points="675.1,1368.4 681,1361.5 685.3,1356.3 	"/>
				<line class="st109" x1="713.8" y1="1322.6" x2="718.4" y2="1317.1"/>
				<line class="st109" x1="699.2" y1="1368" x2="691.4" y2="1361.5"/>
				<polyline class="st109" points="691.4,1361.5 685.3,1356.3 690.4,1350.3 	"/>
				<line class="st109" x1="624.2" y1="914.5" x2="659.6" y2="879.3"/>
				<line class="st109" x1="655.6" y1="944" x2="690" y2="909.9"/>
				<line class="st109" x1="880.7" y1="944.9" x2="876.2" y2="909.8"/>
				<line class="st109" x1="919.1" y1="948.3" x2="922.7" y2="913.2"/>
				<line class="st109" x1="922.1" y1="904" x2="918.2" y2="868.1"/>
				<line class="st109" x1="863" y1="744.7" x2="839.1" y2="768.4"/>
				<line class="st109" x1="668.7" y1="954.9" x2="647.9" y2="937.3"/>
				<line class="st109" x1="654.8" y1="943.2" x2="638.7" y2="962.2"/>
				<line class="st109" x1="827.2" y1="746.8" x2="814.4" y2="733.9"/>
				<line class="st109" x1="811.1" y1="775.5" x2="827.5" y2="792"/>
				<line class="st109" x1="826.9" y1="721.4" x2="779" y2="769.1"/>
				<polyline class="st109" points="920.3,886.8 913.4,885.8 896.5,884.3 877,884.1 858.2,885.2 	"/>
				<polyline class="st109" points="878.5,927.9 896.9,928.3 913.1,930.1 920.9,931.3 	"/>
				<line class="st109" x1="868" y1="854.8" x2="862.6" y2="841.5"/>
				<polyline class="st109" points="827.5,792 837.2,802.3 847,814.8 855.2,827.4 862.6,841.5 	"/>
				<polyline class="st109" points="911.2,856 907.1,842.6 901,827.4 893.9,812.9 885.5,798.9 876.2,785.6 865.8,773 855.5,762.3 
					850.4,757.2 	"/>
				<line class="st109" x1="1069.6" y1="963.4" x2="1087.2" y2="967.3"/>
				<line class="st109" x1="985.2" y1="944.5" x2="1060.7" y2="961.4"/>
				<line class="st109" x1="1004.6" y1="997.6" x2="1068.5" y2="1011.9"/>
				<line class="st109" x1="980.2" y1="1036.4" x2="1045.5" y2="1051"/>
				<polyline class="st109" points="976,1074.2 980.1,1068.5 984.1,1062.7 	"/>
				<polyline class="st109" points="964,1090.4 967.6,1085.7 971.8,1080 976,1074.2 	"/>
				<line class="st109" x1="965.3" y1="1114.8" x2="939.3" y2="1092.9"/>
				<polyline class="st109" points="953.2,1104.6 956.8,1099.9 960.5,1095.1 964,1090.4 	"/>
				<line class="st109" x1="970.8" y1="1122.6" x2="990.4" y2="1127"/>
				<polyline class="st109" points="964.1,1161.7 945.6,1157.6 877.5,1100.2 	"/>
				<line class="st109" x1="903.1" y1="1098" x2="891.4" y2="1111.9"/>
				<line class="st109" x1="890.5" y1="1111.2" x2="878.8" y2="1125"/>
				<line class="st109" x1="908.2" y1="1185.3" x2="894.2" y2="1173.6"/>
				<line class="st109" x1="914.5" y1="1190.7" x2="938.3" y2="1196"/>
				<line class="st109" x1="1019.2" y1="909.1" x2="1069.9" y2="920.5"/>
				<line class="st109" x1="1105.7" y1="885.4" x2="1087.2" y2="967.3"/>
				<line class="st109" x1="1019.2" y1="909.1" x2="1015.8" y2="924.7"/>
				<polyline class="st109" points="1087.8,881.5 1105.5,885.5 1106.4,881.7 1124.1,885.6 	"/>
				<line class="st109" x1="908.2" y1="1185.3" x2="914.5" y2="1190.7"/>
				<line class="st109" x1="999.2" y1="1895" x2="1040.2" y2="1832.1"/>
				<line class="st109" x1="1024.6" y1="1916.3" x2="1081.6" y2="1828.6"/>
				<line class="st109" x1="1216" y1="1801.7" x2="1270.3" y2="1802.8"/>
				<line class="st109" x1="1052.3" y1="1835.3" x2="1023.5" y2="1827.5"/>
				<line class="st109" x1="1178.6" y1="1803.2" x2="1177.5" y2="1853.6"/>
				<line class="st109" x1="1215.3" y1="1838.5" x2="1276.7" y2="1839.8"/>
				<line class="st109" x1="1216.3" y1="1789.8" x2="1215.7" y2="1817.5"/>
				<line class="st109" x1="1215.5" y1="1826.7" x2="1214.9" y2="1854.4"/>
				<line class="st109" x1="1268.5" y1="1790.9" x2="1272.6" y2="1818.8"/>
				<line class="st109" x1="1274.4" y1="1827.9" x2="1279.5" y2="1855.7"/>
				<line class="st109" x1="1162.7" y1="1802.9" x2="1192.7" y2="1803.5"/>
				<line class="st109" x1="1065.3" y1="1899.5" x2="1116.5" y2="1942.6"/>
				<line class="st109" x1="984.9" y1="1910.3" x2="965.5" y2="1933.1"/>
				<line class="st109" x1="1131.5" y1="1842.2" x2="1129.8" y2="1925"/>
				<line class="st109" x1="1134.5" y1="1779" x2="1065.4" y2="1760.2"/>
				<line class="st109" x1="1133.7" y1="1816.9" x2="1052.3" y2="1794.8"/>
				<line class="st109" x1="1134.8" y1="1766.6" x2="1134.2" y2="1795.3"/>
				<line class="st109" x1="1134" y1="1804.7" x2="1133.4" y2="1833.2"/>
				<line class="st109" x1="1061.3" y1="1775.5" x2="1068.6" y2="1748.7"/>
				<line class="st109" x1="1048.2" y1="1810.2" x2="1055.5" y2="1783.3"/>
				<line class="st109" x1="938.9" y1="1942.7" x2="1016.8" y2="2008.3"/>
				<line class="st109" x1="965.5" y1="1589.6" x2="1034.7" y2="1647.9"/>
				<line class="st109" x1="932.3" y1="1561.6" x2="958.2" y2="1583.4"/>
				<line class="st109" x1="939.7" y1="1637.2" x2="879.9" y2="1586.8"/>
				<line class="st109" x1="877.1" y1="1648.1" x2="848.5" y2="1624"/>
				<line class="st109" x1="847.9" y1="1682.8" x2="819.2" y2="1658.7"/>
				<line class="st109" x1="995.1" y1="1747.6" x2="948.3" y2="1708.2"/>
				<line class="st109" x1="974.9" y1="1789.9" x2="919.1" y2="1742.9"/>
				<line class="st109" x1="960.7" y1="1693.5" x2="936.6" y2="1722.1"/>
				<line class="st109" x1="930.8" y1="1729" x2="907.4" y2="1756.8"/>
				<line class="st109" x1="830.3" y1="1703.7" x2="806.9" y2="1731.4"/>
				<line class="st109" x1="889.5" y1="1633.4" x2="865.4" y2="1662.1"/>
				<line class="st109" x1="859.6" y1="1669" x2="836.2" y2="1696.7"/>
				<line class="st109" x1="988.3" y1="1765.7" x2="1002.4" y2="1728.6"/>
				<line class="st109" x1="966.3" y1="1806.4" x2="983.5" y2="1773.4"/>
				<line class="st109" x1="1009.4" y1="1695.9" x2="946.7" y2="1643"/>
				<line class="st109" x1="1081.4" y1="996.3" x2="1077.4" y2="1013.9"/>
				<line class="st109" x1="1072" y1="1038.3" x2="1068" y2="1056"/>
				<line class="st109" x1="1077.4" y1="1013.9" x2="1073.9" y2="1029.5"/>
				<line class="st109" x1="1068" y1="1056" x2="1064.4" y2="1071.5"/>
				<polyline class="st109" points="1053,1122.4 1049.1,1140.1 1045.6,1155.6 	"/>
				<line class="st109" x1="1016.8" y1="1219.1" x2="1032.3" y2="1222.7"/>
				<polyline class="st109" points="977,1210.2 992.5,1213.7 1001.4,1173.9 	"/>
				<line class="st109" x1="1032.3" y1="1222.7" x2="1041.2" y2="1182.8"/>
				<polyline class="st109" points="915.9,1341.3 926.3,1329.2 936.5,1317 	"/>
				<line class="st109" x1="947.2" y1="1367.7" x2="967.6" y2="1343.4"/>
				<line class="st109" x1="957.4" y1="1355.5" x2="1000.3" y2="1391.7"/>
				<line class="st109" x1="1032.3" y1="1222.7" x2="1047.8" y2="1226.1"/>
				<line class="st109" x1="992.5" y1="1213.7" x2="1007.9" y2="1217.1"/>
				<line class="st109" x1="1045.4" y1="1388.8" x2="1015" y2="1424.8"/>
				<line class="st109" x1="889.8" y1="1298.5" x2="926.3" y2="1329.2"/>
				<line class="st109" x1="933.9" y1="1195" x2="969.4" y2="1203"/>
				<line class="st109" x1="957.2" y1="1160.1" x2="977.8" y2="1164.8"/>
				<line class="st109" x1="981.9" y1="1125" x2="1049.1" y2="1140.1"/>
				<line class="st109" x1="1031.7" y1="1047.9" x2="1068" y2="1056"/>
				<line class="st109" x1="1055.8" y1="1009.2" x2="1077.4" y2="1013.9"/>
				<line class="st109" x1="1087.2" y1="967.3" x2="1104.9" y2="971.3"/>
				<line class="st109" x1="1019.8" y1="1457.8" x2="1045.9" y2="1479.7"/>
				<line class="st109" x1="1009.2" y1="1431.8" x2="971.2" y2="1476.8"/>
				<line class="st109" x1="1033.7" y1="1469.5" x2="1004.1" y2="1504.6"/>
				<line class="st109" x1="941.9" y1="1511.5" x2="913.2" y2="1545.6"/>
				<line class="st109" x1="974.9" y1="1539.3" x2="946.2" y2="1573.3"/>
				<line class="st109" x1="1043.4" y1="1517" x2="1021.5" y2="1542.9"/>
				<line class="st109" x1="1059.4" y1="1497.9" x2="1097.4" y2="1529.9"/>
				<line class="st109" x1="1031.7" y1="1530.8" x2="1081.3" y2="1572.6"/>
				<line class="st109" x1="1071.1" y1="1484.1" x2="1049.2" y2="1510"/>
				<line class="st109" x1="1015.6" y1="1549.9" x2="992.7" y2="1577"/>
				<line class="st109" x1="1065.1" y1="1615.4" x2="1003.9" y2="1563.8"/>
				<line class="st109" x1="841.2" y1="1426.5" x2="816.9" y2="1406.1"/>
				<line class="st109" x1="805.8" y1="1419.3" x2="828.5" y2="1392.2"/>
				<line class="st109" x1="903.6" y1="1422.8" x2="944.8" y2="1457.5"/>
				<line class="st109" x1="931.3" y1="1389.9" x2="972.5" y2="1424.6"/>
				<line class="st109" x1="917" y1="1490.5" x2="875.8" y2="1455.8"/>
				<line class="st109" x1="896.7" y1="1360.6" x2="868.2" y2="1336.7"/>
				<line class="st109" x1="869" y1="1393.6" x2="842.9" y2="1371.7"/>
				<polyline class="st109" points="1034.7,1647.9 1040.2,1652.7 1050.7,1656.6 	"/>
				<line class="st109" x1="849.5" y1="1264.4" x2="891.1" y2="1299.6"/>
				<line class="st109" x1="860.7" y1="1274" x2="887.5" y2="1237.6"/>
				<polyline class="st109" points="299.9,1141.5 294.1,1148.5 289,1154.5 283.9,1160.5 278,1167.5 272.9,1173.6 267.1,1180.4 
					261.2,1187.4 256.1,1193.5 250.9,1199.5 262.6,1209.4 	"/>
				<line class="st109" x1="237.1" y1="1187.8" x2="250.9" y2="1199.5"/>
				<polyline class="st109" points="324.9,1103.2 313.2,1117.1 319.3,1122.1 	"/>
				<line class="st109" x1="313.2" y1="1117.1" x2="301.5" y2="1130.9"/>
				<line class="st109" x1="319.3" y1="1122.1" x2="325.3" y2="1127.3"/>
				<line class="st109" x1="640" y1="815.3" x2="600" y2="775.1"/>
				<line class="st109" x1="587.1" y1="787.8" x2="610.1" y2="765.1"/>
				<line class="st109" x1="650" y1="805.4" x2="627.1" y2="828"/>
				<line class="st109" x1="616.6" y1="758.7" x2="637.9" y2="737.5"/>
				<line class="st109" x1="668.7" y1="788.7" x2="627.8" y2="747.5"/>
				<line class="st109" x1="639.4" y1="726.3" x2="660.8" y2="705.1"/>
				<line class="st109" x1="696.7" y1="761.3" x2="650.7" y2="715.1"/>
				<line class="st109" x1="706.7" y1="751.3" x2="685.4" y2="772.6"/>
				<line class="st109" x1="673.3" y1="684.6" x2="715" y2="699.2"/>
				<line class="st109" x1="722.8" y1="704.3" x2="758.6" y2="716.7"/>
				<line class="st109" x1="708.8" y1="740.6" x2="739.5" y2="710.1"/>
				<line class="st109" x1="680.1" y1="711.6" x2="698.4" y2="693.3"/>
				<line class="st109" x1="667.8" y1="679" x2="673.3" y2="684.6"/>
				<line class="st109" x1="382.7" y1="1298.9" x2="404.6" y2="1317.5"/>
				<line class="st109" x1="535.2" y1="1522" x2="558.4" y2="1494.5"/>
				<line class="st109" x1="564.4" y1="1487.3" x2="587.6" y2="1459.9"/>
				<line class="st109" x1="503.6" y1="1124.3" x2="525.7" y2="1098.2"/>
				<line class="st109" x1="530.6" y1="1090.5" x2="556.5" y2="1059.8"/>
				<line class="st109" x1="562.4" y1="1052.8" x2="588.3" y2="1022.1"/>
				<line class="st109" x1="566" y1="1113.1" x2="577.7" y2="1099.2"/>
				<polyline class="st109" points="411,1266.1 426.1,1279.1 451.7,1286.8 447.2,1302 	"/>
				<line class="st109" x1="881.1" y1="1161" x2="892" y2="1148.1"/>
				<line class="st109" x1="862.9" y1="1145.7" x2="873.8" y2="1132.7"/>
				<line class="st109" x1="830" y1="1245.1" x2="818.2" y2="1259"/>
				<line class="st109" x1="1100.8" y1="1150.8" x2="1130.3" y2="1157.7"/>
				<line class="st109" x1="1110.6" y1="1108.6" x2="1140.1" y2="1115.5"/>
				<line class="st109" x1="1118.8" y1="1067.2" x2="1149.6" y2="1074.5"/>
				<line class="st109" x1="1127.6" y1="1026.8" x2="1165" y2="1035.6"/>
				<line class="st109" x1="1131.5" y1="1009.7" x2="1124.5" y2="1041.1"/>
				<line class="st109" x1="1122.4" y1="1050" x2="1115.1" y2="1082.9"/>
				<line class="st109" x1="1187.4" y1="1173.5" x2="1209" y2="1182.1"/>
				<line class="st109" x1="1197.5" y1="1130.8" x2="1224" y2="1141.4"/>
				<line class="st109" x1="1208.1" y1="1087.5" x2="1239.9" y2="1100.2"/>
				<line class="st109" x1="1199.6" y1="1058.5" x2="1206.2" y2="1031.9"/>
				<polyline class="st109" points="1203.1,1045.9 1225.4,1051 1253.9,1062.8 	"/>
			</g>


			</svg>
